<?xml version="1.0" standalone="no"?><!DOCTYPE svg PUBLIC "-//W3C//DTD SVG 1.1//EN" "http://www.w3.org/Graphics/SVG/1.1/DTD/svg11.dtd"><svg width="100%" height="100%" viewBox="0 0 686 321" version="1.1" xmlns="http://www.w3.org/2000/svg" xmlns:xlink="http://www.w3.org/1999/xlink" xml:space="preserve" style="fill-rule:evenodd;clip-rule:evenodd;stroke-linecap:square;stroke-miterlimit:10;"><g><path d="M10.722,198.016l0,-75" style="fill:none;stroke-width:2px;stroke:#000;"/><path d="M48.223,198.016l0,-75" style="fill:none;stroke-width:2px;stroke:#000;"/><path d="M85.723,198.016l0,-75" style="fill:none;stroke-width:2px;stroke:#000;"/><path d="M123.222,198.016l0,-75" style="fill:none;stroke-width:2px;stroke:#000;"/><path d="M160.722,198.016l0,-75" style="fill:none;stroke-width:2px;stroke:#000;"/><path d="M198.222,198.016l0,-75" style="fill:none;stroke-width:2px;stroke:#000;"/><path d="M235.721,198.016l0,-75" style="fill:none;stroke-width:2px;stroke:#000;"/><path d="M273.223,198.016l0,-75" style="fill:none;stroke-width:2px;stroke:#000;"/><path d="M310.721,198.016l0,-75" style="fill:none;stroke-width:2px;stroke:#000;"/><path d="M348.223,198.016l0,-75" style="fill:none;stroke-width:2px;stroke:#000;"/><path d="M385.722,198.016l0,-75" style="fill:none;stroke-width:2px;stroke:#000;"/><path d="M423.224,198.016l0,-75" style="fill:none;stroke-width:2px;stroke:#000;"/><path d="M460.723,198.016l0,-75" style="fill:none;stroke-width:2px;stroke:#000;"/><path d="M498.221,198.016l0,-75" style="fill:none;stroke-width:2px;stroke:#000;"/><path d="M535.72,198.016l0,-75" style="fill:none;stroke-width:2px;stroke:#000;"/><path d="M573.222,198.016l0,-75" style="fill:none;stroke-width:2px;stroke:#000;"/><path d="M10.722,198.016l562.5,0" style="fill:none;stroke-width:2px;stroke:#000;"/><path d="M10.722,160.514l562.5,0" style="fill:none;stroke-width:2px;stroke:#000;"/><path d="M10.722,123.016l562.5,0" style="fill:none;stroke-width:2px;stroke:#000;"/><path d="M385.722,310.516l0,-300" style="fill:none;stroke-width:2px;stroke:#000;"/><path d="M423.224,310.516l0,-300" style="fill:none;stroke-width:2px;stroke:#000;"/><path d="M460.723,310.516l0,-300" style="fill:none;stroke-width:2px;stroke:#000;"/><path d="M385.722,310.516l75.001,0" style="fill:none;stroke-width:2px;stroke:#000;"/><path d="M385.722,273.017l75.001,0" style="fill:none;stroke-width:2px;stroke:#000;"/><path d="M385.722,235.515l75.001,0" style="fill:none;stroke-width:2px;stroke:#000;"/><path d="M385.722,198.016l75.001,0" style="fill:none;stroke-width:2px;stroke:#000;"/><path d="M385.722,160.514l75.001,0" style="fill:none;stroke-width:2px;stroke:#000;"/><path d="M385.722,123.016l75.001,0" style="fill:none;stroke-width:2px;stroke:#000;"/><path d="M385.722,85.517l75.001,0" style="fill:none;stroke-width:2px;stroke:#000;"/><path d="M385.722,48.015l75.001,0" style="fill:none;stroke-width:2px;stroke:#000;"/><path d="M385.722,10.516l75.001,0" style="fill:none;stroke-width:2px;stroke:#000;"/><path d="M423.224,198.016l-37.502,0l0,-75l75.001,0l0,75" style="fill:#808080;fill-rule:nonzero;stroke-width:2px;stroke-linecap:butt;stroke-linejoin:round;stroke-miterlimit:1.41421;stroke:#231f20;"/><path d="M483.92,184.374l14.301,-5.107l-14.301,-5.11l5.722,5.11" style="fill:#3a53a4;fill-rule:nonzero;stroke-width:2px;stroke-linecap:butt;stroke-linejoin:round;stroke-miterlimit:1.41421;stroke:#3a53a4;"/><path d="M310.721,179.267l178.921,0" style="fill:none;stroke-width:2px;stroke-linecap:butt;stroke:#00f;"/><path d="M409.581,99.818l-5.11,-14.301l-5.106,14.301l5.106,-5.722" style="fill:#3a53a4;fill-rule:nonzero;stroke-width:2px;stroke-linecap:butt;stroke-linejoin:round;stroke-miterlimit:1.41421;stroke:#00f;"/><path d="M310.721,141.765c75.001,-3.751 93.75,18.749 93.75,-47.669" style="fill:none;stroke-width:2px;stroke-linecap:butt;stroke:#00f;"/><path d="M348.223,141.765l141.419,0" style="fill:none;stroke-width:2px;stroke-linecap:butt;stroke:#00f;"/><path d="M483.92,146.871l14.301,-5.106l-14.301,-5.107l5.722,5.107" style="fill:#3a53a4;fill-rule:nonzero;stroke-width:2px;stroke-linecap:butt;stroke-linejoin:round;stroke-miterlimit:1.41421;stroke:#00f;"/><path d="M399.365,221.217l5.106,14.298l5.11,-14.298l-5.11,5.719" style="fill:#3a53a4;fill-rule:nonzero;stroke-width:2px;stroke-linecap:butt;stroke-linejoin:round;stroke-miterlimit:1.41421;stroke:#00f;"/><path d="M310.721,179.267c75.001,3.751 93.75,-18.753 93.75,47.669" style="fill:none;stroke-width:2px;stroke-linecap:butt;stroke:#00f;"/><path d="M354.444,27.936l-6.221,-17.42l-6.224,17.42l6.224,-6.969" style="fill:#000;fill-rule:nonzero;stroke-width:2px;stroke-linecap:butt;stroke-linejoin:round;stroke-miterlimit:1.41421;stroke:#231f20;"/><g><g><path d="M666.058,166.737l17.419,-6.221l-17.419,-6.224l6.968,6.224" style="fill:#000;fill-rule:nonzero;stroke-width:2px;stroke-linecap:butt;stroke-linejoin:round;stroke-miterlimit:1.41421;stroke:#231f20;"/></g><path d="M608.477,160.516l64.549,0" style="fill:none;stroke-width:2px;stroke-linecap:butt;stroke:#000;"/></g><path d="M348.223,85.517l0,-64.55" style="fill:none;stroke-width:2px;stroke-linecap:butt;stroke:#000;"/><path d="M341.999,293.096l6.224,17.42l6.221,-17.42l-6.221,6.969" style="fill:#000;fill-rule:nonzero;stroke-width:2px;stroke-linecap:butt;stroke-linejoin:round;stroke-miterlimit:1.41421;stroke:#231f20;"/><path d="M348.223,235.515l0,64.55" style="fill:none;stroke-width:2px;stroke-linecap:butt;stroke:#000;"/></g></svg>